<?xml version="1.0" encoding="UTF-8"?>
<svg version="1.1" xmlns="http://www.w3.org/2000/svg" width="512"  height="512">
<path d="M0 0 C0.65965983 -0.00235223 1.31931965 -0.00470446 1.99896917 -0.00712797 C4.21290635 -0.01379338 6.4267845 -0.0133605 8.64073086 -0.01294994 C10.24261881 -0.01625005 11.84450593 -0.01997593 13.446392 -0.02409142 C17.8511847 -0.03410194 22.25596378 -0.03782666 26.66076624 -0.04048073 C31.40995304 -0.04438633 36.15912907 -0.05396416 40.90830898 -0.0626936 C52.37537738 -0.08244569 63.84244664 -0.09252038 75.30952778 -0.10142139 C80.70690081 -0.10580434 86.10427284 -0.11117095 91.50164509 -0.11641026 C109.43661356 -0.13341752 127.37158141 -0.14791418 145.3065567 -0.155159 C149.95948761 -0.15706893 154.6124185 -0.15898926 159.26534939 -0.16094494 C161.00007206 -0.16167055 161.00007206 -0.16167055 162.76983964 -0.16241082 C181.52624321 -0.1707206 200.2825832 -0.19607573 219.03895897 -0.22852562 C238.28550908 -0.26155296 257.5320268 -0.27960363 276.7786054 -0.28280324 C287.58920451 -0.28497181 298.39971077 -0.29377172 309.21028233 -0.31926441 C318.41149709 -0.34091197 327.61259644 -0.34905107 336.81383378 -0.33929763 C341.51104738 -0.33473627 346.20802254 -0.33674529 350.90520382 -0.35605907 C355.20141572 -0.37357237 359.49721313 -0.37279032 363.79342871 -0.35716178 C365.35121859 -0.35476764 366.9090363 -0.35920186 368.46678341 -0.37099043 C370.57790944 -0.38598293 372.68754249 -0.37652751 374.79862976 -0.36076355 C375.97305242 -0.36174036 377.14747508 -0.36271717 378.35748631 -0.36372358 C381.97120582 0.24033412 383.15137356 1.24258144 385.33639431 4.13422108 C385.83810329 6.98968983 385.83810329 6.98968983 385.83248806 10.32172108 C385.8369595 12.18401356 385.8369595 12.18401356 385.84152126 14.08392811 C385.82083353 15.43405546 385.79824135 16.78415476 385.77389431 18.13422108 C385.76366741 19.16697163 385.76366741 19.16697163 385.75323391 20.22058582 C385.26739644 67.87388826 375.1849128 117.14242116 354.33639431 160.13422108 C353.96288845 160.90717518 353.58938259 161.68012928 353.20455837 162.47650623 C345.26192888 178.70235257 335.32949763 193.59881849 323.33639431 207.13422108 C322.65766923 207.99308257 321.97894415 208.85194407 321.27965164 209.73683167 C317.22606199 213.03862686 314.29152891 212.84319025 309.20912075 212.78932667 C307.8268551 212.80420164 307.8268551 212.80420164 306.4166649 212.81937712 C303.32729881 212.84635586 300.23908302 212.83756797 297.14962673 212.82880116 C294.93528504 212.84048711 292.7209535 212.85425595 290.50663662 212.86995411 C284.48995989 212.90560316 278.47366813 212.90906636 272.45690227 212.9046433 C267.43452348 212.90345479 262.41222509 212.91689467 257.38986665 212.93002623 C244.86246604 212.96210759 232.33525289 212.96227397 219.80784223 212.9486623 C208.93661647 212.93792209 198.06600703 212.9699831 187.19491693 213.02212099 C176.02565075 213.07527381 164.8566094 213.09788983 153.68719846 213.09028071 C147.4191286 213.08639913 141.15165324 213.09453099 134.88368702 213.13288784 C128.9875407 213.16771884 123.09265758 213.16392658 117.19651508 213.13054943 C115.03419887 213.1247707 112.87179634 213.13260978 110.70958996 213.15515614 C92.32572808 213.33338671 92.32572808 213.33338671 87.17457485 208.33932972 C85.61948586 206.26642513 85.61948586 206.26642513 84.33639431 204.13422108 C80.09169266 198.02616151 77.22699047 194.88541774 70.10983181 192.44281483 C69.26101437 192.12702976 68.41219692 191.8112447 67.53765774 191.48589039 C65.58836178 190.76238636 63.63500457 190.04976695 61.6785574 189.34582996 C57.97112246 188.00180186 54.28196024 186.61221304 50.59518337 185.21283436 C44.77607873 183.00687266 38.95323866 180.81130294 33.12545681 178.6283617 C31.99722185 178.20567225 31.99722185 178.20567225 30.84619427 177.77444363 C27.02363068 176.34269433 23.20062834 174.91212113 19.37740993 173.48212147 C-10.33336777 162.36600804 -10.33336777 162.36600804 -23.40579319 157.06781483 C-24.26562809 156.72227055 -25.12546299 156.37672626 -26.01135349 156.02071095 C-32.8720461 153.19860901 -38.84023468 149.78033653 -44.66360569 145.13422108 C-45.97844944 144.08814686 -45.97844944 144.08814686 -47.31985569 143.02093983 C-63.72823522 129.10841321 -73.38188326 108.48718569 -75.53860569 87.25922108 C-76.50901787 65.71607075 -70.65580878 44.25511601 -56.27713108 27.88934803 C-51.21168644 22.36145134 -45.91682406 17.31006336 -39.66360569 13.13422108 C-38.78575413 12.54125233 -37.90790257 11.94828358 -37.00344944 11.33734608 C-26.05936004 4.44389542 -12.99061223 0.01978113 0 0 Z M-19.15969944 60.23187733 C-25.82181243 68.65901765 -26.39696858 77.76237447 -25.66360569 88.13422108 C-24.08148811 95.28234269 -20.29996184 101.4485756 -14.66360569 106.13422108 C-8.86933992 109.69607045 -2.89063132 112.41630896 3.46530056 114.79828358 C4.71620731 115.27640995 4.71620731 115.27640995 5.99238491 115.76419544 C8.6255079 116.768929 11.26208201 117.76421583 13.89889431 118.75922108 C15.669313 119.43307949 17.43949732 120.10755398 19.20944118 120.78265858 C25.19032398 123.06127417 25.19032398 123.06127417 31.18090725 125.31421375 C32.65074186 125.87337979 34.1132718 126.45204087 35.56878567 127.04749012 C39.85815565 128.90513444 39.85815565 128.90513444 44.33639431 128.13422108 C44.15052761 127.52239979 43.96466091 126.9105785 43.77316189 126.28021717 C35.98698738 100.50546013 30.55862278 74.87871738 27.33639431 48.13422108 C23.87813495 48.07523738 20.42000811 48.04029976 16.96139431 48.00922108 C15.51313259 47.98408436 15.51313259 47.98408436 14.03561306 47.95843983 C0.87243728 47.87009637 -9.88947772 50.4024311 -19.15969944 60.23187733 Z " fill="#eedede" transform="translate(90.66360569000244,215.86577892303467)"/>
<path d="M0 0 C1.0181497 -0.00872064 1.0181497 -0.00872064 2.05686808 -0.01761746 C4.34216347 -0.03227082 6.62639373 -0.01830849 8.91168213 -0.00457001 C10.56220933 -0.00917684 12.21273244 -0.01552829 13.86324692 -0.02347898 C18.40722765 -0.04022541 22.95087371 -0.03190193 27.49485588 -0.01953411 C32.39200011 -0.0105076 37.28908559 -0.02444139 42.18621826 -0.0354538 C51.78302853 -0.05326931 61.37971389 -0.04938555 70.97652912 -0.03780323 C78.77389364 -0.02878109 86.57122307 -0.02753962 94.36859131 -0.0318985 C95.47703895 -0.03251143 96.5854866 -0.03312436 97.72752357 -0.03375587 C99.97909452 -0.03503473 102.23066546 -0.03633158 104.48223639 -0.03764623 C125.61066981 -0.04906092 146.7390339 -0.0359244 167.86745596 -0.01444477 C186.00886036 0.00342701 204.15016239 0.00032315 222.29156494 -0.01811981 C243.34278678 -0.03951084 264.3939478 -0.0479622 285.44517899 -0.03567076 C287.68861134 -0.03439652 289.9320437 -0.03313904 292.17547607 -0.0318985 C293.27937738 -0.0312814 294.38327869 -0.03066429 295.52063155 -0.03002849 C303.31143764 -0.02657029 311.10220524 -0.03241406 318.89300537 -0.04181671 C328.38338527 -0.05301845 337.87363279 -0.05003514 347.36399746 -0.02869374 C352.20903246 -0.0181587 357.05384649 -0.01410312 361.89888 -0.02729034 C366.33023098 -0.03916947 370.76115521 -0.0327262 375.19246721 -0.01138014 C376.79940253 -0.00689497 378.40637357 -0.009223 380.01328611 -0.01888329 C382.19073235 -0.03097395 384.36669957 -0.01864957 386.54406738 0 C387.75548527 0.00064941 388.96690315 0.00129882 390.21503067 0.00196791 C393.90351392 0.60693727 395.0889388 1.50907478 397.27203369 4.50336456 C397.94715579 9.22921926 398.17809264 11.27580082 395.33453369 15.12836456 C393.81859619 16.30398956 393.81859619 16.30398956 392.27203369 17.50336456 C391.69840088 17.95066925 391.12476807 18.39797394 390.53375244 18.85883331 C345.40628694 51.543386 272.00555773 52.59236203 218.30328369 52.70648956 C216.91728218 52.71073063 216.91728218 52.71073063 215.50328064 52.71505737 C210.59188571 52.72993138 205.68051915 52.73922925 200.769104 52.74359894 C196.8139296 52.74793628 192.85897917 52.76165911 188.90386963 52.78461456 C129.5967442 53.12155204 63.33553674 52.03107231 8.70953369 26.44086456 C7.88316406 26.05382355 7.05679443 25.66678253 6.2053833 25.268013 C-7.81316935 18.33295848 -7.81316935 18.33295848 -10.72796631 12.50336456 C-11.311643 5.26577356 -11.311643 5.26577356 -9.12185287 2.40543032 C-5.93827078 -0.12408907 -4.04209405 0.00216686 0 0 Z " fill="#eedede" transform="translate(98.72796630859375,443.4966354370117)"/>
<path d="M0 0 C0.66 -0.0103125 1.32 -0.020625 2 -0.03125 C5.07642548 0.78592552 6.14258491 1.90685556 8 4.5 C8.62178988 7.41941584 8.72903002 10.33651815 8.875 13.3125 C9.46806953 21.75974325 9.46806953 21.75974325 14.3046875 28.4453125 C17.75204254 30.58998038 21.0636176 31.39162039 25.09375 31.6171875 C32.80314557 32.0786654 38.64653243 34.92652362 43.96484375 40.59375 C48.9896222 47.68755486 49.07405256 55.07716678 48 63.5 C46.30522972 70.17446569 41.55910414 74.66970478 36 78.5 C31.23591543 81.0159551 26.60455527 80.7960024 21.3515625 80.80859375 C19.44010111 80.83375354 17.52864285 80.85915157 15.6171875 80.88476562 C12.6197999 80.91348282 9.62246648 80.93751588 6.625 80.95629883 C3.72107194 80.97803053 0.81777146 81.01747321 -2.0859375 81.05859375 C-2.97469574 81.05870956 -3.86345398 81.05882538 -4.77914429 81.0589447 C-10.99750483 81.15719493 -16.08042531 81.95714463 -20.9375 86.1875 C-22.51530025 89.62153584 -22.64825234 92.8362817 -22 96.5 C-20.20656013 99.67300899 -18.88321509 101.09327963 -15.57714844 102.61572266 C-10.50022772 103.87074633 -5.60140432 103.7782698 -0.390625 103.7734375 C1.91406732 103.79373104 4.21875478 103.81458191 6.5234375 103.8359375 C10.1351329 103.85849221 13.74663594 103.87499454 17.35839844 103.88085938 C20.85907271 103.89043191 24.35889381 103.92426997 27.859375 103.9609375 C28.92637634 103.95589203 29.99337769 103.95084656 31.0927124 103.94564819 C40.43819396 104.0670552 48.51786166 106.30500759 55.46875 112.796875 C62.86241291 121.02043885 64.58190067 129.73445635 64.3125 140.51171875 C63.83817365 148.89741331 60.22530477 155.902937 54 161.5 C47.35627314 166.4960826 41.17198287 168.73823641 32.78881836 168.78710938 C32.09371658 168.79394241 31.39861481 168.80077545 30.68244934 168.80781555 C29.18311192 168.82133642 27.68372926 168.83043263 26.18433952 168.83552551 C23.80897581 168.84385828 21.43398855 168.86440147 19.05873108 168.88806152 C13.16258717 168.9442952 7.2663518 168.97966207 1.37005615 169.01568604 C-3.62078709 169.04697174 -8.61144607 169.08618886 -13.60214043 169.13594055 C-15.93807862 169.15595376 -18.27387267 169.16431584 -20.60987854 169.17224121 C-22.04599529 169.18521685 -23.48210726 169.19873764 -24.91821289 169.21289062 C-26.79302086 169.22382751 -26.79302086 169.22382751 -28.70570374 169.23498535 C-31.93477208 169.49475264 -34.15128587 169.97927485 -37 171.5 C-38.35510876 174.04067501 -38.35510876 174.04067501 -39.125 177 C-40.70131291 182.30087527 -40.70131291 182.30087527 -44 184.5 C-50.77159309 185.14491363 -50.77159309 185.14491363 -54.5 183.1875 C-57.26073393 178.24118503 -56.86801898 172.62486832 -55.375 167.25 C-52.7182609 161.17745349 -47.74224904 156.32816543 -41.80279541 153.42662048 C-38.42691038 152.31053324 -35.61376747 152.24118986 -32.05761719 152.22875977 C-31.37884018 152.22353302 -30.70006317 152.21830627 -30.00071716 152.21292114 C-28.53301034 152.20271513 -27.06526767 152.19690669 -25.59752655 152.19503975 C-23.26734251 152.19135961 -20.93757788 152.17458662 -18.60748291 152.15428162 C-11.98465817 152.09903967 -5.36177155 152.06827212 1.26123047 152.04370117 C5.31959574 152.02774131 9.37766428 151.99743252 13.43587494 151.95893669 C14.97466611 151.9473579 16.51351055 151.94135697 18.05234528 151.94125557 C26.1711932 151.94052681 33.47783026 151.87226797 41 148.5 C45.59148889 143.79372389 46.35499181 140.43085276 46.28125 134.04296875 C45.86818756 130.30819582 44.49125668 128.26058172 42 125.5 C37.24059336 121.96095404 32.63072636 121.37707492 26.81762695 121.37402344 C25.80920242 121.37021667 24.80077789 121.36640991 23.76179504 121.36248779 C22.68153549 121.36146057 21.60127594 121.36043335 20.48828125 121.359375 C18.1803287 121.34104388 15.87238572 121.32147329 13.56445312 121.30078125 C9.94164874 121.27186351 6.31946038 121.25000094 2.6965332 121.24951172 C-0.81093433 121.24616056 -4.31699689 121.21151011 -7.82421875 121.171875 C-9.42942635 121.18247955 -9.42942635 121.18247955 -11.06706238 121.19329834 C-19.26954769 121.06183081 -26.0181677 119.18520794 -32.14970398 113.51043701 C-38.61535527 106.69166233 -40.56645968 99.89754429 -40.48046875 90.56860352 C-40.18145838 82.04582427 -37.27615527 76.33070397 -31.125 70.5625 C-24.52277463 64.94093991 -18.22660717 64.0596569 -9.8671875 64.05859375 C-8.91232452 64.04538589 -7.95746155 64.03217804 -6.97366333 64.01856995 C-3.94074528 63.97787784 -0.90812826 63.9560564 2.125 63.9375 C5.16517781 63.91366963 8.20507405 63.88550701 11.24508667 63.84571838 C13.13148175 63.82146687 15.01802574 63.80652265 16.90457153 63.80210876 C23.18736964 63.74324781 23.18736964 63.74324781 29 61.5 C30.50662097 58.48675805 30.17770373 55.81713623 30 52.5 C27.22060877 49.72060877 24.23484639 49.79656289 20.5 49.25 C11.11601158 47.66887659 3.24154595 44.31319958 -2.65283203 36.49194336 C-7.39482101 29.48036524 -8.6425026 23.05359036 -8.5 14.6875 C-8.51546875 13.76001953 -8.5309375 12.83253906 -8.546875 11.87695312 C-8.50861695 5.24396383 -8.50861695 5.24396383 -6.21875 1.89453125 C-3.89554604 0.43434848 -2.716492 -0.04244519 0 0 Z " fill="#eedede" transform="translate(288,15.5)"/>
<path d="M0 0 C3.67903332 1.6248943 7.13962092 3.56037703 10.625 5.5625 C11.58760742 6.10245605 12.55021484 6.64241211 13.54199219 7.19873047 C16.36804157 8.78761504 19.18405332 10.39330216 22 12 C23.49131621 12.83619123 24.98341405 13.67099118 26.4765625 14.50390625 C35.65484122 19.65484122 35.65484122 19.65484122 38 22 C39.5815146 31.37898213 34.53764937 38.55021399 30.125 46.4375 C29.38891713 47.78487567 28.65453071 49.13317957 27.921875 50.48242188 C25.63619271 54.66682445 23.31766044 58.83322445 21 63 C17.7 68.94 14.4 74.88 11 81 C-10.45 81 -31.9 81 -54 81 C-52.67415848 77.02247543 -51.66783933 74.10464244 -49.70703125 70.5859375 C-49.24941406 69.75707031 -48.79179687 68.92820312 -48.3203125 68.07421875 C-47.82273437 67.18347656 -47.32515625 66.29273438 -46.8125 65.375 C-45.72417311 63.4042459 -44.63698858 61.43286062 -43.55078125 59.4609375 C-42.97408691 58.41518555 -42.39739258 57.36943359 -41.80322266 56.29199219 C-38.98237101 51.1422002 -36.21719444 45.96280387 -33.4524231 40.78277588 C-32.50062591 39.0011716 -31.54652434 37.22082249 -30.59155273 35.44091797 C-27.56143803 29.79279155 -24.54343215 24.13890449 -21.5546875 18.46875 C-20.49509701 16.47900403 -19.43521752 14.48941193 -18.375 12.5 C-17.90255859 11.5925 -17.43011719 10.685 -16.94335938 9.75 C-12.84800781 2.11320054 -9.34630603 -2.91744882 0 0 Z " fill="#eedede" transform="translate(446,119)"/>
</svg>
